<?xml version="1.0" encoding="UTF-8" standalone="no"?>
<svg
   xmlns:dc="http://purl.org/dc/elements/1.1/"
   xmlns:cc="http://creativecommons.org/ns#"
   xmlns:rdf="http://www.w3.org/1999/02/22-rdf-syntax-ns#"
   xmlns:svg="http://www.w3.org/2000/svg"
   xmlns="http://www.w3.org/2000/svg"
   xmlns:sodipodi="http://sodipodi.sourceforge.net/DTD/sodipodi-0.dtd"
   xmlns:inkscape="http://www.inkscape.org/namespaces/inkscape"
   version="1.1"
   width="252"
   height="252"
   id="svg48"
   viewBox="0 0 252 252"
   sodipodi:docname="TRP_Logo.cdr">
  <metadata
     id="metadata54">
    <rdf:RDF>
      <cc:Work
         rdf:about="">
        <dc:format>image/svg+xml</dc:format>
        <dc:type
           rdf:resource="http://purl.org/dc/dcmitype/StillImage" />
      </cc:Work>
    </rdf:RDF>
  </metadata>
  <defs
     id="defs52" />
  <sodipodi:namedview
     pagecolor="#ffffff"
     bordercolor="#666666"
     borderopacity="1"
     objecttolerance="10"
     gridtolerance="10"
     guidetolerance="10"
     inkscape:pageopacity="0"
     inkscape:pageshadow="2"
     inkscape:window-width="640"
     inkscape:window-height="480"
     id="namedview50" />
  <g
     id="Layer1000">
    <path
       d="m 77.1509,97.7427 -5.3945,-0.0472 c 2.1844,-7.1204 6.0737,-13.557 11.2872,-18.2226 7.8744,-7.0471 19.2217,-10.0907 28.8009,-4.7809 4.6456,2.575 8.3348,6.8675 8.5802,12.2594 0.1191,2.619 -0.612,5.4141 -2.4342,8.2417 -2.0241,2.8037 -5.3011,4.7785 -7.9292,6.7206 -3.9704,2.9339 -4.1354,3.7444 -4.2756,8.3891 -0.4613,15.2325 -8.497,20.015 -16.8128,19.7803 -10.35,-0.2918 -19.4868,-8.2122 -18.2885,-24.7798 h 5.015 c -1.2657,8.6506 1.8828,14.8452 6.3566,18.0644 5.3411,3.8432 12.5718,3.4456 16.4359,-2.0776 2.0247,-2.8943 2.5178,-6.9639 2.7096,-10.6335 0.3346,-6.406 -0.4931,-7.9524 5.5209,-12.1627 3.7484,-2.6243 8.3057,-4.4669 8.8916,-9.976 0.4141,-3.895 -2.0763,-7.3128 -5.3694,-9.4652 -7.6215,-4.9813 -17.5113,-1.5514 -23.7056,4.1958 -4.1473,3.8478 -7.3709,8.765 -9.3881,14.4942 z"
       style="fill:#511825;fill-rule:evenodd"
       id="path2" />
    <path
       d="m 121.3481,97.7433 14.5638,-0.0042 v 4.8919 c -0.0321,0.01 -11.2165,3.2322 -10.9858,9.6991 0.0682,1.9096 1.3687,3.7293 3.197,4.8925 0.9972,0.6347 2.1456,1.06 3.3358,1.1874 1.1405,0.122 2.3188,-0.0384 3.4299,-0.5655 2.2541,-1.069 4.3122,-3.6681 5.4734,-8.479 1.611,-6.6726 5.6703,-9.9457 9.9735,-10.7788 1.711,-0.3312 3.454,-0.2619 5.094,0.1447 1.6347,0.4051 3.1752,1.1514 4.4852,2.1746 6.2796,4.9054 6.9962,14.5614 1.626,20.079 -5.3377,5.4846 -15.0724,4.1467 -15.9737,12.4384 0.009,6.7121 -0.3465,21.7614 -0.3465,28.7833 v 2.3465 H 142.8742 53.185 50.8385 v -2.3465 -62.1647 -2.3465 h 2.3465 34.6101 v 4.693 H 55.5315 v 57.4717 h 84.9962 c 0,-8.1475 0.2446,-20.4946 0.2502,-27.6922 1.6419,-15.0915 21.1539,-8.3967 19.2787,-22.1229 -0.4138,-3.0258 -2.56,-5.7138 -5.8063,-6.5185 -0.964,-0.2387 -1.986,-0.28 -2.9863,-0.0864 -2.5662,0.4966 -5.0315,2.6336 -6.1064,7.0856 -1.5623,6.4722 -4.6641,10.1271 -8.1613,11.7855 -1.9765,0.9372 -4.0567,1.2245 -6.0594,1.0101 -1.9527,-0.2089 -3.8331,-0.9042 -5.4631,-1.9415 -3.122,-1.9868 -5.3499,-5.2752 -5.4785,-8.8758 -0.1517,-4.2559 2.2752,-7.4805 5.1864,-9.8038 l -9.5864,-0.0261 z"
       style="fill:#511825;fill-rule:evenodd"
       id="path4" />
    <path
       d="M 73.53,154.5649 V 148.41 h -2.0371 v -1.765 h 6.2094 v 1.765 h -2.026 v 6.1549 z m 5.3034,0 v -7.9199 h 2.1241 v 2.9631 h 2.7669 v -2.9631 h 2.1246 v 7.9199 h -2.1246 v -3.0937 h -2.7669 v 3.0937 z m 8.6279,0 v -7.9199 h 5.9497 v 1.765 h -3.8256 v 1.3726 H 93.3 v 1.5253 h -3.7146 v 1.4924 h 3.9108 v 1.7646 z m 13.4225,-4.096 h 1.1875 c 0.3542,0 0.5957,-0.0617 0.7227,-0.1869 0.1287,-0.1234 0.1922,-0.3525 0.1922,-0.6863 v -0.3032 c 0,-0.336 -0.0653,-0.5686 -0.194,-0.6938 -0.1292,-0.1252 -0.3707,-0.1887 -0.7209,-0.1887 h -1.1875 z m -2.1241,4.096 v -7.9199 h 3.1935 c 1.2203,0 2.0553,0.1598 2.5094,0.4812 0.4537,0.3214 0.6806,0.8843 0.6806,1.6887 v 0.6374 c 0,0.5354 -0.1288,0.9549 -0.3885,1.2581 -0.2579,0.3032 -0.641,0.4865 -1.1475,0.55 0.5358,0.0892 0.926,0.2668 1.1693,0.5322 0.245,0.2668 0.3667,0.6464 0.3667,1.1382 v 1.6341 h -2.1677 v -1.4254 c 0,-0.3374 -0.0652,-0.57 -0.1944,-0.6952 -0.1287,-0.1252 -0.3702,-0.1887 -0.7205,-0.1887 h -1.1768 v 2.3093 z m 7.82,0 v -7.9199 h 5.9497 v 1.765 h -3.8256 v 1.3726 h 3.7146 v 1.5253 h -3.7146 v 1.4924 h 3.9109 v 1.7646 z m 7.4839,0 v -7.9199 h 3.1593 l 2.4619,5.8828 v -5.8828 h 2.0261 v 7.9199 h -3.1594 l -2.4619,-5.9351 v 5.9351 z m 11.6886,-2.996 h 1.734 L 126.7,148.2884 h -0.1381 z m -3.0266,2.996 2.2769,-7.9199 h 3.2663 l 2.224,7.9199 h -2.2769 l -0.3555,-1.3837 h -2.4966 l -0.3613,1.3837 z m 8.7913,0 v -7.9199 h 2.1458 v 6.079 h 3.5407 v 1.8409 z m 18.0867,0 v -7.9199 h 3.7165 c 1.044,0 1.792,0.2056 2.2422,0.614 0.4505,0.4101 0.6756,1.084 0.6756,2.0242 v 0.5211 c 0,0.9425 -0.2251,1.6194 -0.6774,2.0301 -0.4519,0.4119 -1.1999,0.617 -2.2404,0.617 h -1.5924 v 2.1135 z m 2.1241,-3.8781 h 1.4801 c 0.3484,0 0.5788,-0.0617 0.6916,-0.1873 0.1145,-0.1234 0.1704,-0.3738 0.1704,-0.7498 v -0.4572 c 0,-0.3143 -0.0723,-0.5393 -0.2157,-0.6721 -0.1434,-0.1323 -0.3871,-0.1997 -0.732,-0.1997 h -1.3944 z m 7.8342,-0.2179 h 1.1875 c 0.3542,0 0.5957,-0.0617 0.7227,-0.1869 0.1287,-0.1234 0.1922,-0.3525 0.1922,-0.6863 v -0.3032 c 0,-0.336 -0.0653,-0.5686 -0.194,-0.6938 -0.1292,-0.1252 -0.3707,-0.1887 -0.7209,-0.1887 h -1.1875 z m -2.1241,4.096 v -7.9199 h 3.1935 c 1.2203,0 2.0553,0.1598 2.5094,0.4812 0.4537,0.3214 0.6805,0.8843 0.6805,1.6887 v 0.6374 c 0,0.5354 -0.1287,0.9549 -0.3884,1.2581 -0.2579,0.3032 -0.641,0.4865 -1.1475,0.55 0.5358,0.0892 0.926,0.2668 1.1693,0.5322 0.245,0.2668 0.3666,0.6464 0.3666,1.1382 v 1.6341 h -2.1676 v -1.4254 c 0,-0.3374 -0.0652,-0.57 -0.1944,-0.6952 -0.1287,-0.1252 -0.3702,-0.1887 -0.7205,-0.1887 h -1.1768 v 2.3093 z m 9.7372,-4.6061 v 1.3034 c 0,0.6774 0.0764,1.104 0.2286,1.2766 0.1527,0.1741 0.4723,0.2615 0.9589,0.2615 h 0.3937 c 0.4848,0 0.8062,-0.0892 0.9624,-0.2672 0.1563,-0.1758 0.2344,-0.6011 0.2344,-1.2709 v -1.3034 c 0,-0.6738 -0.0781,-1.1004 -0.2344,-1.2802 -0.1562,-0.1798 -0.4776,-0.2686 -0.9624,-0.2686 h -0.3937 c -0.483,0 -0.8008,0.0888 -0.9549,0.2668 -0.1545,0.1762 -0.2326,0.6046 -0.2326,1.282 z m -2.1676,-0.1762 c 0,-1.2021 0.225,-2.0424 0.6752,-2.5201 0.4501,-0.4776 1.2345,-0.7151 2.3549,-0.7151 h 1.0419 c 1.124,0 1.9119,0.2392 2.3643,0.7187 0.4519,0.4794 0.6769,1.3184 0.6769,2.5165 v 1.6447 c 0,1.1986 -0.225,2.0371 -0.6769,2.5165 -0.4524,0.4795 -1.2403,0.7192 -2.3643,0.7192 h -1.0419 c -1.1204,0 -1.9048,-0.238 -2.3549,-0.7156 -0.4502,-0.4772 -0.6752,-1.318 -0.6752,-2.5201 z m 13.6476,2.3532 c 0,0.8514 -0.1851,1.4849 -0.5535,1.9026 -0.3685,0.4159 -0.9331,0.6246 -1.694,0.6246 h -0.9784 c -0.8625,0 -1.4764,-0.1834 -1.8449,-0.55 -0.3667,-0.3689 -0.55,-0.9753 -0.55,-1.8232 v -1.1235 h 2.0695 v 0.9038 c 0,0.285 0.0382,0.4776 0.1128,0.5775 0.0745,0.1017 0.2068,0.1527 0.3977,0.1527 h 0.3849 c 0.1904,0 0.3232,-0.051 0.3977,-0.1527 0.0742,-0.0999 0.1123,-0.2925 0.1123,-0.5775 v -5.4251 h 2.1459 z m 1.6017,2.4291 v -7.9199 h 5.9497 v 1.765 h -3.8256 v 1.3726 h 3.7146 v 1.5253 h -3.7146 v 1.4924 h 3.9108 v 1.7646 z m 13.8891,-3.0502 v 0.2287 c 0,1.0329 -0.2269,1.7792 -0.6805,2.2351 -0.4542,0.4559 -1.1946,0.6845 -2.2263,0.6845 h -0.7187 c -1.1204,0 -1.9048,-0.2397 -2.3549,-0.7174 -0.4501,-0.4772 -0.6752,-1.318 -0.6752,-2.5219 v -1.6411 c 0,-1.2039 0.2251,-2.0424 0.6752,-2.5201 0.4501,-0.4776 1.2345,-0.7151 2.3549,-0.7151 h 0.5865 c 1.1111,0 1.8861,0.2086 2.3256,0.6281 0.4395,0.4173 0.6592,1.1564 0.6592,2.2129 v 0.1545 h -2.1134 v -0.1434 c 0,-0.3613 -0.0835,-0.6175 -0.2504,-0.7662 -0.1656,-0.1487 -0.4577,-0.2233 -0.8719,-0.2233 -0.4572,0 -0.7622,0.0888 -0.9149,0.265 -0.1527,0.178 -0.2286,0.6046 -0.2286,1.2821 v 1.3015 c 0,0.6756 0.0759,1.1022 0.2286,1.278 0.1527,0.1763 0.4577,0.2637 0.9149,0.2637 0.4289,0 0.7245,-0.0821 0.8879,-0.2437 0.1638,-0.1616 0.2454,-0.4483 0.2454,-0.8603 v -0.1816 z m 2.8432,3.0502 V 148.41 h -2.0371 v -1.765 h 6.2095 v 1.765 h -2.0261 v 6.1549 z"
       style="fill:#1b1918;fill-rule:evenodd"
       id="path6" />
    <g
       id="Layer1001">
      <path
         d="m 50.8385,178.0387 v -7.1298 h 3.442 c 0.8941,0 1.5202,0.1768 1.8815,0.5313 0.3613,0.3532 0.5409,0.9709 0.5409,1.8502 v 2.3521 c 0,0.8844 -0.1813,1.5053 -0.5441,1.8618 -0.3613,0.3564 -0.9874,0.5344 -1.8783,0.5344 z m 0.7845,-0.706 h 2.5285 c 0.6848,0 1.1457,-0.1162 1.378,-0.3497 0.2335,-0.2322 0.3496,-0.6767 0.3496,-1.3305 v -2.3047 c 0,-0.6883 -0.1161,-1.1509 -0.3464,-1.3828 -0.2323,-0.2339 -0.6932,-0.35 -1.3812,-0.35 H 51.623 Z"
         style="fill:#6e6f70;fill-rule:evenodd"
         id="path8" />
      <path
         d="m 58.1054,171.7524 v -0.8435 h 0.7454 v 0.8435 z m 0,6.2863 v -5.0409 h 0.7454 v 5.0409 z"
         style="fill:#6e6f70;fill-rule:evenodd"
         id="path10" />
      <path
         d="m 63.6937,176.754 v -0.5313 c 0,-0.2403 -0.1226,-0.4151 -0.3661,-0.526 -0.2435,-0.1129 -0.6325,-0.1684 -1.1654,-0.1684 -0.4871,0 -0.8141,0.0619 -0.9777,0.1845 -0.1648,0.1226 -0.2467,0.358 -0.2467,0.7061 0,0.3974 0.0867,0.6602 0.2616,0.7928 0.1732,0.1323 0.5212,0.1993 1.0444,0.1993 0.469,0 0.827,-0.057 1.077,-0.1699 0.2487,-0.1129 0.3729,-0.2762 0.3729,-0.4871 z m 0.0374,0.7535 c -0.1145,0.2109 -0.2974,0.3629 -0.5474,0.4577 -0.2519,0.0948 -0.5983,0.1422 -1.0428,0.1422 -0.788,0 -1.3176,-0.1128 -1.5857,-0.3383 -0.268,-0.2255 -0.4019,-0.6442 -0.4019,-1.2586 0,-0.3548 0.031,-0.6326 0.0932,-0.8335 0.062,-0.2013 0.1649,-0.3629 0.3087,-0.4839 0.121,-0.1029 0.2993,-0.1748 0.5345,-0.2174 0.2355,-0.0442 0.5722,-0.0654 1.0135,-0.0654 0.4561,0 0.8057,0.0377 1.046,0.1129 0.2419,0.0751 0.4235,0.1993 0.5445,0.3757 v -0.8696 c 0,-0.4119 -0.0803,-0.6783 -0.2387,-0.8009 -0.1603,-0.121 -0.5606,-0.1813 -1.2015,-0.1813 -0.4658,0 -0.7764,0.0491 -0.93,0.1471 -0.1519,0.0965 -0.2322,0.2797 -0.2386,0.5493 h -0.7455 v -0.1161 c 0,-0.4316 0.139,-0.739 0.4187,-0.9219 0.2793,-0.1848 0.7616,-0.2761 1.4447,-0.2761 0.5329,0 0.9384,0.0226 1.2161,0.0668 0.278,0.0442 0.4838,0.1161 0.618,0.2158 0.1471,0.1145 0.25,0.2567 0.3106,0.4267 0.0603,0.1684 0.0913,0.4594 0.0913,0.8713 v 3.5287 h -0.6783 z"
         style="fill:#6e6f70;fill-rule:evenodd"
         id="path12" />
      <path
         d="m 65.9393,178.0387 v -7.1298 h 0.7455 v 7.1298 z"
         style="fill:#6e6f70;fill-rule:evenodd"
         id="path14" />
      <path
         d="m 67.6831,172.9978 h 0.747 l 1.4989,4.3365 1.489,-4.3365 h 0.7373 l -1.9011,5.4822 c -0.2074,0.5919 -0.4184,0.9938 -0.6342,1.2048 -0.2158,0.2106 -0.5051,0.3154 -0.8696,0.3154 -0.0538,0 -0.1142,-0.002 -0.1796,-0.006 -0.0655,-0.005 -0.1358,-0.0149 -0.2126,-0.0265 l 0.0048,-0.6535 c 0.0229,0.003 0.0507,0.005 0.0836,0.007 0.0342,0.002 0.0816,0.003 0.1422,0.003 0.2287,0 0.4068,-0.0523 0.5329,-0.1552 0.1258,-0.1048 0.2451,-0.3074 0.3561,-0.6064 l 0.188,-0.5232 h -0.2254 z"
         style="fill:#6e6f70;fill-rule:evenodd"
         id="path16" />
      <path
         d="m 72.8301,176.5382 h 0.7551 v 0.1145 c 0,0.3106 0.0965,0.5248 0.2878,0.6422 0.1912,0.1161 0.5754,0.1752 1.1541,0.1752 0.647,0 1.046,-0.0591 1.1963,-0.1784 0.1503,-0.1177 0.2255,-0.3464 0.2255,-0.6848 0,-0.3287 -0.0619,-0.5493 -0.1845,-0.6587 -0.1226,-0.1112 -0.43,-0.178 -0.9203,-0.2045 -0.1832,-0.01 -0.4283,-0.0193 -0.7373,-0.0293 -0.6764,-0.0177 -1.0787,-0.0652 -1.2061,-0.1371 -0.1912,-0.1064 -0.3287,-0.2503 -0.4087,-0.4316 -0.0816,-0.1816 -0.1225,-0.4428 -0.1225,-0.7844 0,-0.5593 0.1422,-0.9367 0.4264,-1.1345 0.2829,-0.1977 0.909,-0.2974 1.8766,-0.2974 0.7503,0 1.257,0.0945 1.5231,0.2826 0.2665,0.188 0.4007,0.52 0.4007,0.9922 h -0.7455 v -0.0474 c 0,-0.2239 -0.0964,-0.3774 -0.2893,-0.4626 -0.1945,-0.0848 -0.5783,-0.1274 -1.1522,-0.1274 -0.5574,0 -0.9106,0.0506 -1.0641,0.1535 -0.1535,0.1013 -0.2303,0.3155 -0.2303,0.641 0,0.1977 0.0145,0.3348 0.0423,0.4151 0.0296,0.08 0.0803,0.1403 0.1538,0.1813 0.1503,0.08 0.4822,0.1258 0.997,0.139 0.1307,0.003 0.232,0.006 0.3023,0.01 0.4219,0.0164 0.7519,0.0377 0.9922,0.0655 0.2403,0.0261 0.4103,0.0638 0.5132,0.1128 0.2238,0.1013 0.3825,0.2484 0.4773,0.4397 0.0933,0.1929 0.1407,0.4706 0.1407,0.8351 0,0.3693 -0.0458,0.6522 -0.139,0.8435 -0.0933,0.1913 -0.2584,0.3612 -0.4987,0.5083 -0.1078,0.0704 -0.2858,0.121 -0.5313,0.1503 -0.2467,0.031 -0.5883,0.0458 -1.0264,0.0458 -0.8941,0 -1.4856,-0.1028 -1.775,-0.309 -0.2893,-0.2074 -0.4332,-0.5819 -0.4332,-1.126 z"
         style="fill:#6e6f70;fill-rule:evenodd"
         id="path18" />
      <path
         d="m 78.7342,171.7524 v -0.8435 h 0.7454 v 0.8435 z m 0,6.2863 v -5.0409 h 0.7454 v 5.0409 z"
         style="fill:#6e6f70;fill-rule:evenodd"
         id="path20" />
      <path
         d="m 80.8408,176.5382 h 0.7551 v 0.1145 c 0,0.3106 0.0965,0.5248 0.2878,0.6422 0.1912,0.1161 0.5754,0.1752 1.1541,0.1752 0.647,0 1.046,-0.0591 1.1963,-0.1784 0.1503,-0.1177 0.2255,-0.3464 0.2255,-0.6848 0,-0.3287 -0.0619,-0.5493 -0.1845,-0.6587 -0.1226,-0.1112 -0.43,-0.178 -0.9203,-0.2045 -0.1832,-0.01 -0.4283,-0.0193 -0.7373,-0.0293 -0.6764,-0.0177 -1.0787,-0.0652 -1.2061,-0.1371 -0.1912,-0.1064 -0.3287,-0.2503 -0.4086,-0.4316 -0.0817,-0.1816 -0.1226,-0.4428 -0.1226,-0.7844 0,-0.5593 0.1422,-0.9367 0.4264,-1.1345 0.2829,-0.1977 0.909,-0.2974 1.8766,-0.2974 0.7503,0 1.257,0.0945 1.5232,0.2826 0.2664,0.188 0.4006,0.52 0.4006,0.9922 h -0.7455 v -0.0474 c 0,-0.2239 -0.0964,-0.3774 -0.2893,-0.4626 -0.1945,-0.0848 -0.5783,-0.1274 -1.1522,-0.1274 -0.5573,0 -0.9105,0.0506 -1.0641,0.1535 -0.1535,0.1013 -0.2303,0.3155 -0.2303,0.641 0,0.1977 0.0145,0.3348 0.0423,0.4151 0.0296,0.08 0.0803,0.1403 0.1538,0.1813 0.1503,0.08 0.4822,0.1258 0.997,0.139 0.1307,0.003 0.232,0.006 0.3023,0.01 0.4219,0.0164 0.7519,0.0377 0.9922,0.0655 0.2403,0.0261 0.4103,0.0638 0.5132,0.1128 0.2238,0.1013 0.3825,0.2484 0.4773,0.4397 0.0933,0.1929 0.1407,0.4706 0.1407,0.8351 0,0.3693 -0.0458,0.6522 -0.139,0.8435 -0.0933,0.1913 -0.2584,0.3612 -0.4987,0.5083 -0.1078,0.0704 -0.2858,0.121 -0.5313,0.1503 -0.2467,0.031 -0.5883,0.0458 -1.0263,0.0458 -0.8942,0 -1.4857,-0.1028 -1.7751,-0.309 -0.2893,-0.2074 -0.4332,-0.5819 -0.4332,-1.126 z"
         style="fill:#6e6f70;fill-rule:evenodd"
         id="path22" />
      <path
         d="m 91.9997,168.5566 v 9.8071 h -0.52 v -9.8071 z"
         style="fill:#6e6f70;fill-rule:evenodd"
         id="path24" />
      <path
         d="m 98.3628,178.0387 v -7.1298 h 5.0015 v 0.7551 h -4.2171 v 2.3344 h 4.0978 v 0.7254 h -4.0978 v 2.5695 h 4.2171 v 0.7454 z"
         style="fill:#6e6f70;fill-rule:evenodd"
         id="path26" />
      <path
         d="m 103.9346,178.0387 1.9125,-2.6952 -1.6673,-2.3457 h 0.8418 l 1.2177,1.767 1.2176,-1.767 h 0.8435 l -1.6492,2.3457 1.9124,2.6952 h -0.8435 l -1.4808,-2.125 -1.4515,2.125 z"
         style="fill:#6e6f70;fill-rule:evenodd"
         id="path28" />
      <path
         d="m 111.1557,178.1074 c -0.7535,0 -1.2799,-0.147 -1.5805,-0.4412 -0.299,-0.2942 -0.4497,-0.8093 -0.4497,-1.548 v -1.1947 c 0,-0.7406 0.1491,-1.2586 0.4481,-1.5528 0.2974,-0.2942 0.8222,-0.4413 1.5724,-0.4413 h 0.3497 c 0.7125,0 1.226,0.1371 1.5415,0.41 0.3154,0.2732 0.4787,0.7209 0.4919,1.3454 l -0.7748,0.005 c -0.0165,-0.4087 -0.1081,-0.6896 -0.278,-0.8435 -0.1681,-0.1535 -0.4968,-0.2303 -0.9806,-0.2303 h -0.3497 c -0.5151,0 -0.8499,0.0865 -1.0086,0.2581 -0.1584,0.1735 -0.2371,0.5786 -0.2371,1.2163 v 0.8613 c 0,0.6406 0.0803,1.0476 0.2387,1.2209 0.1603,0.1716 0.4955,0.2583 1.007,0.2583 h 0.3497 c 0.4903,0 0.8238,-0.0832 0.997,-0.2516 0.1748,-0.1667 0.2616,-0.4741 0.2616,-0.917 v -0.0868 h 0.7748 v 0.0965 c 0,0.657 -0.1555,1.128 -0.4674,1.4105 -0.3122,0.2829 -0.8306,0.4251 -1.558,0.4251 z"
         style="fill:#6e6f70;fill-rule:evenodd"
         id="path30" />
      <path
         d="m 115.4412,175.028 h 2.854 v -0.1961 c 0,-0.4726 -0.0852,-0.7929 -0.2535,-0.9629 -0.17,-0.1683 -0.5049,-0.2532 -1.0051,-0.2532 h -0.3497 c -0.4987,0 -0.8306,0.0849 -0.997,0.2532 -0.1652,0.17 -0.2487,0.4903 -0.2487,0.9629 z m 1.2554,3.0794 c -0.7535,0 -1.2799,-0.147 -1.5805,-0.4412 -0.2991,-0.2926 -0.4497,-0.8093 -0.4497,-1.548 v -1.1947 c 0,-0.7422 0.149,-1.2586 0.448,-1.5528 0.2974,-0.2942 0.8222,-0.4413 1.5725,-0.4413 h 0.3497 c 0.7535,0 1.2815,0.1471 1.5821,0.4413 0.301,0.2942 0.4513,0.8106 0.4513,1.5528 v 0.7615 l -3.6288,0.005 c -0.003,0.0506 -0.005,0.108 -0.006,0.1684 -0.002,0.0622 -0.003,0.1487 -0.003,0.2599 0,0.5213 0.0832,0.8697 0.25,1.0461 0.1652,0.178 0.5003,0.2664 1.0054,0.2664 h 0.3497 c 0.4496,0 0.7615,-0.0655 0.9383,-0.1945 0.1748,-0.129 0.2777,-0.3548 0.3054,-0.6783 h 0.7797 c -0.0375,0.5477 -0.2139,0.9415 -0.5277,1.1851 -0.3139,0.2435 -0.8093,0.3644 -1.4877,0.3644 z"
         style="fill:#6e6f70;fill-rule:evenodd"
         id="path32" />
      <path
         d="m 120.4134,178.0387 v -7.1298 h 0.7454 v 7.1298 z"
         style="fill:#6e6f70;fill-rule:evenodd"
         id="path34" />
      <path
         d="m 122.7065,178.0387 v -7.1298 h 0.7454 v 7.1298 z"
         style="fill:#6e6f70;fill-rule:evenodd"
         id="path36" />
      <path
         d="m 125.5682,175.028 h 2.854 v -0.1961 c 0,-0.4726 -0.0852,-0.7929 -0.2535,-0.9629 -0.17,-0.1683 -0.5049,-0.2532 -1.0051,-0.2532 h -0.3497 c -0.4987,0 -0.8306,0.0849 -0.997,0.2532 -0.1652,0.17 -0.2487,0.4903 -0.2487,0.9629 z m 1.2554,3.0794 c -0.7535,0 -1.2799,-0.147 -1.5805,-0.4412 -0.2991,-0.2926 -0.4497,-0.8093 -0.4497,-1.548 v -1.1947 c 0,-0.7422 0.149,-1.2586 0.448,-1.5528 0.2974,-0.2942 0.8222,-0.4413 1.5725,-0.4413 h 0.3497 c 0.7535,0 1.2815,0.1471 1.5821,0.4413 0.301,0.2942 0.4513,0.8106 0.4513,1.5528 v 0.7615 l -3.6288,0.005 c -0.003,0.0506 -0.005,0.108 -0.007,0.1684 -0.002,0.0622 -0.003,0.1487 -0.003,0.2599 0,0.5213 0.0832,0.8697 0.25,1.0461 0.1652,0.178 0.5003,0.2664 1.0054,0.2664 h 0.3497 c 0.4496,0 0.7615,-0.0655 0.9383,-0.1945 0.1748,-0.129 0.2777,-0.3548 0.3054,-0.6783 h 0.7797 c -0.0375,0.5477 -0.2139,0.9415 -0.5277,1.1851 -0.3139,0.2435 -0.8093,0.3644 -1.4877,0.3644 z"
         style="fill:#6e6f70;fill-rule:evenodd"
         id="path38" />
      <path
         d="m 130.5404,178.0387 v -5.0409 h 0.7158 v 0.69 c 0.1225,-0.26 0.317,-0.4513 0.5854,-0.5739 0.2681,-0.1225 0.6209,-0.1845 1.0622,-0.1845 0.6603,0 1.1231,0.1339 1.3876,0.4003 0.2648,0.2665 0.3974,0.7355 0.3974,1.4057 v 3.3033 h -0.7454 v -3.1449 c 0,-0.5261 -0.0768,-0.8728 -0.2319,-1.0393 -0.1555,-0.1651 -0.4561,-0.2487 -0.9025,-0.2487 -0.5277,0 -0.9119,0.121 -1.1571,0.3613 -0.2435,0.2419 -0.3661,0.6212 -0.3661,1.1425 v 2.9291 z"
         style="fill:#6e6f70;fill-rule:evenodd"
         id="path40" />
      <path
         d="m 138.015,178.1074 c -0.7535,0 -1.2799,-0.147 -1.5805,-0.4412 -0.299,-0.2942 -0.4496,-0.8093 -0.4496,-1.548 v -1.1947 c 0,-0.7406 0.149,-1.2586 0.448,-1.5528 0.2974,-0.2942 0.8222,-0.4413 1.5725,-0.4413 h 0.3496 c 0.7125,0 1.226,0.1371 1.5415,0.41 0.3155,0.2732 0.4787,0.7209 0.4919,1.3454 l -0.7748,0.005 c -0.0164,-0.4087 -0.108,-0.6896 -0.278,-0.8435 -0.1681,-0.1535 -0.4968,-0.2303 -0.9806,-0.2303 h -0.3496 c -0.5152,0 -0.85,0.0865 -1.0087,0.2581 -0.1584,0.1735 -0.2371,0.5786 -0.2371,1.2163 v 0.8613 c 0,0.6406 0.0804,1.0476 0.2387,1.2209 0.1603,0.1716 0.4955,0.2583 1.0071,0.2583 h 0.3496 c 0.4903,0 0.8238,-0.0832 0.997,-0.2516 0.1749,-0.1667 0.2616,-0.4741 0.2616,-0.917 v -0.0868 h 0.7748 v 0.0965 c 0,0.657 -0.1555,1.128 -0.4674,1.4105 -0.3122,0.2829 -0.8306,0.4251 -1.5579,0.4251 z"
         style="fill:#6e6f70;fill-rule:evenodd"
         id="path42" />
      <path
         d="m 142.3005,175.028 h 2.854 v -0.1961 c 0,-0.4726 -0.0852,-0.7929 -0.2535,-0.9629 -0.17,-0.1683 -0.5048,-0.2532 -1.0051,-0.2532 h -0.3497 c -0.4986,0 -0.8305,0.0849 -0.997,0.2532 -0.1651,0.17 -0.2487,0.4903 -0.2487,0.9629 z m 1.2554,3.0794 c -0.7535,0 -1.2799,-0.147 -1.5805,-0.4412 -0.299,-0.2926 -0.4497,-0.8093 -0.4497,-1.548 v -1.1947 c 0,-0.7422 0.1491,-1.2586 0.4481,-1.5528 0.2974,-0.2942 0.8222,-0.4413 1.5724,-0.4413 h 0.3497 c 0.7535,0 1.2815,0.1471 1.5821,0.4413 0.301,0.2942 0.4513,0.8106 0.4513,1.5528 v 0.7615 l -3.6288,0.005 c -0.003,0.0506 -0.005,0.108 -0.006,0.1684 -0.002,0.0622 -0.003,0.1487 -0.003,0.2599 0,0.5213 0.0833,0.8697 0.25,1.0461 0.1652,0.178 0.5003,0.2664 1.0054,0.2664 h 0.3497 c 0.4496,0 0.7615,-0.0655 0.9383,-0.1945 0.1748,-0.129 0.2777,-0.3548 0.3055,-0.6783 h 0.7796 c -0.0374,0.5477 -0.2139,0.9415 -0.5277,1.1851 -0.3139,0.2435 -0.8093,0.3644 -1.4876,0.3644 z"
         style="fill:#6e6f70;fill-rule:evenodd"
         id="path44" />
    </g>
  </g>
</svg>
